<?xml version="1.0" standalone="no"?>
<!DOCTYPE svg PUBLIC "-//W3C//DTD SVG 1.1//EN" "http://www.w3.org/Graphics/SVG/1.1/DTD/svg11.dtd" >
<!--
2013-9-30: Created.
-->
<svg>
<metadata>
Created by iconfont
</metadata>
<defs>

<font id="iconfont" horiz-adv-x="1024" >
  <font-face
    font-family="iconfont"
    font-weight="500"
    font-stretch="normal"
    units-per-em="1024"
    ascent="896"
    descent="-128"
  />
    <missing-glyph />
    
    <glyph glyph-name="jingli" unicode="&#59024;" d="M291.636059 540.283438a41.432285 41.432285 0 0 1 7.728302-18.462054 42.93501 42.93501 0 0 1 21.467505-18.24738s62.04109-202.223899 214.675052-177.536268c0 0 111.416352 12.451153 161.00629 173.457442a65.905241 65.905241 0 0 1 37.138784 57.747589 60.538365 60.538365 0 0 0 2.790775 18.67673 15.241929 15.241929 0 0 1 1.932076 6.010901 64.402516 64.402516 0 0 1-21.467505 57.747589s49.589937 185.69392-94.886374 206.302726c0 0 4.078826 33.059958-16.529979 37.138784 0 0-165.943816 46.155136-259.112788-36.494759a139.538784 139.538784 0 0 1-43.149685-83.079245 256.107338 256.107338 0 0 1 6.440251-123.867506A57.318239 57.318239 0 0 1 284.981132 573.987421s5.152201-21.467505 6.654927-33.703983zM887.574004 121.023061a184.40587 184.40587 0 0 1-181.185744 184.40587l-193.207547-334.249057-196.212998 334.249057A184.191195 184.191195 0 0 1 136.425996 121.023061L119.896017-128h784.207966zM586.384906 225.140461V273.442348a22.970231 22.970231 0 0 1-22.970231 22.970231h-102.82935A22.755556 22.755556 0 0 1 437.829769 273.442348v-49.160587a22.540881 22.540881 0 0 1 22.755556-22.755556h13.095178l-23.614256-74.492243 62.041091-107.337526 61.826415 111.416352-21.467506 70.198742h11.807128a22.755556 22.755556 0 0 1 22.970231 22.755556z"  horiz-adv-x="1024" />

    
    <glyph glyph-name="zuhu" unicode="&#58959;" d="M698.514286 159.390476v17.980953H754.285714v44.647619h-57.142857v59.123809c19.809524 4.266667 37.942857 8.685714 56.076191 13.104762l-16.304762 43.12381c-49.066667-14.780952-99.504762-23.771429-150.4-27.580953l10.666666-42.209524c19.961905 1.828571 36.72381 4.266667 54.704762 6.247619v-51.809523h-65.371428v-44.647619h60.190476c-15.695238-44.952381-40.990476-86.247619-73.752381-120.685715l19.809524-48.914285c23.771429 30.933333 43.733333 64.761905 59.123809 100.723809V-76.190476h46.628572V111.847619c9.752381-13.561905 21.790476-30.019048 36.266666-50.895238l26.057143 39.771429c-21.180952 21.485714-41.6 40.838095-62.323809 58.666666zM959.238095-17.828571v341.333333H774.095238v-341.333333h-37.790476v-44.952381h257.371428v44.952381h-34.438095z m-46.628571 0h-92.647619V53.333333h92.647619v-71.161904z m0 115.352381h-92.647619v70.857142h92.647619V97.52381z m0 114.895238h-92.647619v69.180952h92.647619v-69.180952zM613.485714 457.752381c-2.895238-11.27619-5.638095-21.638095-8.533333-30.933333-2.895238-7.619048-6.4-15.695238-10.666667-24.076191-3.504762-7.009524-8.07619-13.257143-13.714285-18.590476-5.638095-3.961905-10.361905-9.752381-13.257143-16-2.590476-5.638095-4.571429-11.580952-6.4-17.52381-1.828571-6.247619-3.809524-12.495238-5.790476-18.590476-2.285714-6.4-5.638095-12.647619-10.666667-19.2-14.933333-18.742857-27.27619-39.619048-36.72381-61.714285-7.619048-18.438095-13.561905-37.790476-17.219047-57.6-3.2-18.133333-3.961905-36.571429-2.590476-54.704762s4.266667-35.657143 8.533333-52.72381c2.895238-12.647619 7.009524-26.057143 12.647619-39.771428 5.638095-13.866667 13.866667-28.038095 24.990476-42.666667 10.971429-14.47619 24.990476-28.647619 42.057143-42.666667 16.914286-13.714286 38.4-27.12381 63.847619-39.771428-17.219048-3.657143-36.87619-6.704762-59.580952-9.447619-55.466667-5.790476-111.238095-8.685714-167.161905-8.533334-18.438095 0-39.771429 0.609524-64.457143 2.285715-25.295238 1.371429-50.285714 3.2-75.428571 5.180952-25.904762 2.285714-51.504762 4.571429-76.495239 7.466667-25.295238 2.895238-48.304762 5.790476-69.028571 9.142857-17.980952 2.590476-35.504762 6.095238-53.333333 10.057143-14.47619 3.657143-23.619048 6.704762-27.12381 9.447619-6.247619 5.638095-11.27619 21.333333-14.933333 47.390476-3.657143 25.904762-2.438095 59.733333 3.2 101.485714 3.657143 23.466667 12.952381 41.447619 28.190476 53.638095 15.085714 12.342857 33.066667 22.247619 53.638095 29.257143 20.571429 7.009524 42.057143 13.714286 64.457143 19.504762 20.72381 5.485714 40.838095 13.714286 59.12381 24.990476 13.561905 8.533333 23.771429 16.304762 30.933333 24.076191 7.009524 7.466667 12.038095 14.933333 14.933333 22.857143 2.895238 7.619048 4.266667 16 4.266667 24.380952s-0.457143 17.828571-1.219048 27.580952c-1.371429 14.933333-6.4 26.666667-15.390476 35.2-9.142857 8.685714-18.590476 17.371429-28.038095 25.6-6.4 5.028571-11.580952 11.733333-14.933333 19.2-3.961905 7.92381-7.619048 16.152381-10.666667 24.380953-3.809524 10.057143-6.704762 20.419048-8.533333 30.933333-4.87619 1.371429-9.752381 3.657143-13.866667 6.4-4.419048 3.809524-8.228571 8.07619-11.733333 12.647619-5.180952 7.92381-9.295238 16.609524-11.733334 25.6-3.504762 9.447619-4.571429 19.809524-3.657143 29.866667 1.219048 9.142857 3.047619 16.914286 5.790477 23.466666 2.895238 7.92381 6.704762 14.47619 11.733333 20.114286 0 24.07619 1.371429 48.304762 4.266667 72.228572 2.895238 20.571429 7.314286 42.666667 13.257142 65.980952s15.695238 44.342857 29.257143 62.780952c12.647619 17.828571 26.514286 32.304762 40.990477 43.580953 14.47619 11.27619 29.714286 20.114286 45.257142 26.666666 15.542857 6.4 31.238095 10.971429 46.780953 13.257143 15.542857 2.438095 30.47619 3.657143 44.647619 3.657143 18.590476 0 36.114286-1.980952 53.333333-6.4 16.914286-4.266667 32.914286-9.904762 47.238095-16.914286 14.780952-7.009524 27.428571-15.085714 38.704762-24.07619s20.571429-17.980952 27.580953-27.12381c16.304762-20.571429 28.038095-43.12381 35.657143-67.961904 7.466667-24.838095 12.952381-48.304762 16.304761-70.247619 3.657143-25.6 5.028571-51.047619 4.266667-76.495238 4.266667-3.657143 7.92381-7.92381 10.666667-12.64762 2.895238-4.266667 5.028571-9.904762 6.4-17.219047 1.371429-8.838095 1.371429-17.828571 0-26.666667-1.371429-13.561905-4.266667-24.07619-8.533334-31.847619-3.504762-6.857143-8.228571-12.952381-13.866666-17.980952-4.72381-4.266667-10.819048-7.92381-17.676191-10.209524z"  horiz-adv-x="1024" />

    
    <glyph glyph-name="dianpuyunying" unicode="&#58923;" d="M524.4 634.8c168.3 0 304.7-136.4 304.7-304.7 0-168.3-136.4-304.7-304.7-304.7-168.3 0-304.7 136.4-304.7 304.7 0 168.2 136.4 304.7 304.7 304.7zM406.4-100.4C244-53 143.6 91.8 151.1 93.6l68.3 47.7s72-117.7 211.4-157.1c139.8-39.5 256.7 25 256.7 25l31.7-82c-1.1-5.3-172.4-68.5-312.8-27.6zM273.8 585.4c-102.9-102.8-101-220.2-101-220.2H84.9c-4.2 3.5 22.2 180.1 126.7 282.7 120.9 118.7 296.9 135.8 294.8 128.4l8.4-82.9c0 0.1-138.4-5.4-241-108zM707.9 647c-53.2-54.5-140.7-55.7-195.4-2.6-54.7 53-55.8 140.2-2.6 194.7s140.7 55.7 195.4 2.6c54.7-53 55.9-140.2 2.6-194.7z m240.3-644.5c-53.2-54.5-140.7-55.7-195.4-2.6-54.7 53-55.8 140.2-2.6 194.7 53.2 54.5 140.7 55.7 195.4 2.6 54.6-53 55.8-140.2 2.6-194.7z m-679.7 76.2C215.2 24.2 127.8 23 73.1 76c-54.7 53-55.8 140.2-2.6 194.7 53.2 54.5 140.7 55.7 195.4 2.6 54.6-53 55.8-140.1 2.6-194.6z m643.4 22.9L838.5 141s72.8 117.8 45.2 260.2c-27.7 142.8-138 218-138 218l59 65.5c5.2 1.5 138.9-122.9 165.5-266.8 30.9-166.7-53.3-322.2-58.3-316.3z m-783 228.5c-24.3 0-44 19.7-44 43.9 0 24.3 19.7 44 44 44s43.9-19.7 43.9-44-19.7-43.9-43.9-43.9z m562.5-410.2c-24.3 0-43.9 19.7-43.9 44s19.7 43.9 43.9 43.9c24.3 0 44-19.7 44-43.9-0.1-24.3-19.7-44-44-44z m93.7 679.7c-24.3 0-43.9 19.7-43.9 43.9 0 24.3 19.7 44 43.9 44 24.3 0 43.9-19.7 43.9-44 0.1-24.2-19.6-43.9-43.9-43.9z"  horiz-adv-x="1024" />

    
    <glyph glyph-name="zulin" unicode="&#58936;" d="M541.5 331.7h143.1V442.2H541.5v-110.5z m0 145.4h143.1V580.7H541.5v-103.6z m0-295.4h143.1v115H541.5v-115zM512 849C255.2 849 47 640.8 47 384s208.2-465 465-465 465 208.2 465 465S768.8 849 512 849zM389.3 128.4h-36V388.9c-23.5-59.5-53.8-119.1-83-155.1-4.6 10.3-13.7 25.2-20 33.8 35.5 41.8 75.5 117.9 97.9 185.5h-91v35.5h96.1v89.3c-26.3-5.1-53.2-9.2-78.4-12.6-1.7 8-6.9 21.2-10.9 29.8 63.5 9.7 139.1 26.9 181.4 45.2l24-29.8c-22.3-9.2-50.4-17.2-80.1-24.6v-97.3H470V453h-80.7v-10.3c16-18.3 68.7-86.4 80.1-102.5L446 310.5c-10.3 19.5-36.6 60.7-56.6 89.9v-272z m388 17.8H445.4v35.5h59V616.2h219.1v-434.5h53.8v-35.5z"  horiz-adv-x="1024" />

    
    <glyph glyph-name="hetong" unicode="&#59325;" d="M762.88 252.586667c-51.2 0-98.986667-18.773333-133.12-56.32-35.84-34.133333-56.32-83.626667-56.32-133.12 0-51.2 18.773333-98.986667 56.32-133.12 35.84-35.84 83.626667-56.32 134.826667-56.32s98.986667 18.773333 133.12 56.32c35.84 35.84 56.32 83.626667 56.32 133.12 0 51.2-18.773333 98.986667-56.32 133.12-34.133333 35.84-83.626667 56.32-134.826667 56.32z m49.493333-141.653334l52.906667-8.533333c13.653333-1.706667 18.773333-18.773333 10.24-29.013333L836.266667 37.546667c-3.413333-3.413333-5.12-10.24-5.12-15.36l8.533333-52.906667c1.706667-13.653333-11.946667-23.893333-25.6-18.773333L768-23.893333c-5.12 3.413333-10.24 3.413333-15.36 0l-47.786667-25.6c-11.946667-6.826667-27.306667 3.413333-25.6 18.773333l8.533334 52.906667c1.706667 5.12-1.706667 11.946667-5.12 15.36l-39.253334 37.546666c-10.24 10.24-5.12 27.306667 10.24 29.013334l52.906667 8.533333c5.12 0 10.24 5.12 13.653333 8.533333l23.893334 47.786667c6.826667 11.946667 23.893333 11.946667 30.72 0l23.893333-47.786667c3.413333-5.12 8.533333-8.533333 13.653333-10.24zM873.813333 699.733333l-167.253333 170.666667C689.493333 885.76 667.306667 896 641.706667 896H145.066667C104.106667 896 69.973333 861.866667 69.973333 819.2v-826.026667c0-42.666667 34.133333-76.8 76.8-76.8h431.786667c-37.546667 40.96-63.146667 81.92-63.146667 145.066667 0 133.12 112.64 245.76 250.88 245.76 59.733333 0 93.866667-20.48 136.533334-54.613333V634.88c-1.706667 18.773333-13.653333 49.493333-29.013334 64.853333zM715.093333 435.2H256c-22.186667 0-39.253333 17.066667-39.253333 39.253333 0 22.186667 17.066667 39.253333 39.253333 39.253334h460.8c22.186667 0 39.253333-17.066667 39.253333-39.253334 0-22.186667-18.773333-39.253333-40.96-39.253333zM256 252.586667c-22.186667 0-39.253333 17.066667-39.253333 39.253333 0 22.186667 17.066667 39.253333 39.253333 39.253333h204.8c22.186667 0 39.253333-17.066667 39.253333-39.253333 0-22.186667-18.773333-39.253333-40.96-39.253333H256z m459.093333 356.693333H256c-22.186667 0-39.253333 17.066667-39.253333 39.253333 0 22.186667 17.066667 39.253333 39.253333 39.253334h460.8c22.186667 0 39.253333-17.066667 39.253333-39.253334-1.706667-22.186667-18.773333-39.253333-40.96-39.253333z m0 0"  horiz-adv-x="1024" />

    
    <glyph glyph-name="shangchangchaoshi" unicode="&#58893;" d="M547.335211 280.878873h-61.295774v61.295775H569.690141a31.008451 31.008451 0 0 0 29.566197-23.076056l9.374648-38.219719H937.464789a30.287324 30.287324 0 0 0 28.84507-33.892958 18.028169 18.028169 0 0 0 0-8.653521l-58.411267-183.166197a30.287324 30.287324 0 0 0-29.566198-22.354929H636.75493a31.008451 31.008451 0 0 0-29.566198 23.076056zM693.002817-25.6m-38.219718 0a38.219718 38.219718 0 1 1 76.439436 0 38.219718 38.219718 0 1 1-76.439436 0ZM830.738028-25.6m-38.219718 0a38.219718 38.219718 0 1 1 76.439436 0 38.219718 38.219718 0 1 1-76.439436 0ZM823.526761 525.340845H486.760563V801.532394a29.566197 29.566197 0 0 1-30.287324 30.287324H87.977465a30.287324 30.287324 0 0 1-30.287324-30.287324v-793.239436a30.287324 30.287324 0 0 1 30.287324-30.287324h477.385915L504.788732 219.583099H425.464789V387.605634h183.887324a29.566197 29.566197 0 0 0 29.566197-23.797183L649.014085 326.309859h206.242253V495.053521a30.287324 30.287324 0 0 1-31.729577 30.287324z m-447.098592-261.047887H166.580282a28.84507 28.84507 0 1 0 0 57.690141h209.847887a28.84507 28.84507 0 1 0 0-57.690141z m0 186.771831H166.580282a28.84507 28.84507 0 1 0 0 57.690141h209.847887a28.84507 28.84507 0 1 0 0-57.690141z m0 187.492957H166.580282a28.84507 28.84507 0 1 0 0 57.690141h209.847887a28.84507 28.84507 0 1 0 0-57.690141z"  horiz-adv-x="1024" />

    
    <glyph glyph-name="caidanguanli" unicode="&#59030;" d="M1003.550674 680.770844L807.748377 877.084373c-27.095357 27.095357-71.061408 27.095357-98.156764 0l-193.757364-196.313529c-27.095357-27.095357-27.095357-71.061408 0-98.156765L710.614079 387.834249c27.095357-27.095357 71.061408-27.095357 98.156765 0L1003.550674 584.147778c26.072891 26.584124 26.072891 70.550175 0 96.623066z m-244.369446-243.34698l-194.77983 194.77983 194.77983 194.779831 194.77983-194.779831-194.77983-194.77983zM352.239641 831.584623H64.415377C26.072891 831.584623 0.511233 809.090364 0.511233 770.747878v-289.869196c0-38.342486 26.072891-64.415377 64.415377-64.415377h287.313031c38.342486 0 64.415377 26.072891 64.415376 64.415377V768.702946c-0.511233 38.342486-26.072891 62.881677-64.415376 62.881677z m0-543.440839H64.415377c-38.342486 0-64.415377-32.718922-64.415377-71.061408v-276.065901c0-38.342486 30.673989-69.016475 69.016475-69.016475h276.065901c38.342486 0 71.061408 26.072891 71.061408 64.415377v287.31303c0 38.342486-32.718922 62.881677-71.061408 62.881678l7.157265 1.533699z m480.047928 0h-224.431353c-38.342486 0-64.415377-26.072891-64.415377-64.415377v-287.31303c0-38.342486 38.342486-64.415377 76.684972-64.415377h276.065901c38.342486 0 62.881677 26.072891 62.881678 64.415377v287.31303c0 38.342486-26.072891 64.415377-64.415377 64.415377h-62.370444z"  horiz-adv-x="1024" />

    
    <glyph glyph-name="guanxiaobaotubiao09" unicode="&#58985;" d="M913.066667 750.933333 110.933333 750.933333C51.2 750.933333 0 699.733333 0 640l0-512c0-59.733333 51.2-110.933333 110.933333-110.933333l802.133333 0c59.733333 0 110.933333 51.2 110.933333 110.933333L1024 640C1024 699.733333 972.8 750.933333 913.066667 750.933333L913.066667 750.933333 913.066667 750.933333zM964.266667 128c0-29.866667-25.6-51.2-51.2-51.2L110.933333 76.8c-29.866667 0-51.2 25.6-51.2 51.2L59.733333 640c0 29.866667 25.6 51.2 51.2 51.2l802.133333 0c29.866667 0 51.2-25.6 51.2-51.2L964.266667 128 964.266667 128 964.266667 128zM857.6 571.733333l-230.4 0c-12.8 0-21.333333-12.8-21.333333-29.866667 0-17.066667 8.533333-29.866667 21.333333-29.866667l230.4 0c12.8 0 21.333333 12.8 21.333333 29.866667C878.933333 558.933333 870.4 571.733333 857.6 571.733333L857.6 571.733333 857.6 571.733333zM857.6 422.4l-230.4 0c-12.8 0-21.333333-12.8-21.333333-29.866667 0-17.066667 8.533333-29.866667 21.333333-29.866667l230.4 0c12.8 0 21.333333 12.8 21.333333 29.866667C878.933333 409.6 870.4 422.4 857.6 422.4L857.6 422.4 857.6 422.4zM857.6 273.066667l-192 0c-12.8 0-21.333333-12.8-21.333333-29.866667 0-17.066667 8.533333-29.866667 21.333333-29.866667l192 0c12.8 0 21.333333 12.8 21.333333 29.866667C878.933333 260.266667 870.4 273.066667 857.6 273.066667L857.6 273.066667 857.6 273.066667zM422.4 345.6c34.133333 25.6 51.2 68.266667 51.2 110.933333 0 81.066667-64 145.066667-145.066667 145.066667-81.066667 0-145.066667-64-145.066667-145.066667 0-46.933333 21.333333-85.333333 51.2-110.933333-55.466667-25.6-102.4-76.8-123.733333-140.8-4.266667-12.8 4.266667-29.866667 17.066667-34.133333 17.066667-4.266667 29.866667 4.266667 34.133333 17.066667 21.333333 72.533333 85.333333 119.466667 162.133333 119.466667 72.533333 0 140.8-46.933333 162.133333-119.466667 4.266667-12.8 17.066667-21.333333 25.6-21.333333 4.266667 0 4.266667 0 8.533333 0 12.8 4.266667 21.333333 21.333333 17.066667 34.133333C524.8 268.8 482.133333 320 422.4 345.6L422.4 345.6 422.4 345.6zM328.533333 546.133333c51.2 0 89.6-38.4 89.6-89.6 0-51.2-38.4-89.6-89.6-89.6-51.2 0-89.6 38.4-89.6 89.6C238.933333 507.733333 281.6 546.133333 328.533333 546.133333L328.533333 546.133333 328.533333 546.133333zM328.533333 546.133333"  horiz-adv-x="1024" />

    
    <glyph glyph-name="shangpuguanli" unicode="&#58880;" d="M900.57728 136.854187zM599.466667 187.460267c12.342613 3.13344 24.446293 6.7584 36.795733 9.304746 19.3536 4.130133 21.899947 13.643093 10.171733 28.494507-7.509333 9.34912-15.264427 18.30912-24.777386 29.330773 9.925973 13.43488 20.145493 27.286187 30.457173 41.137494 9.844053 13.428053 19.561813 26.866347 30.621013 41.96352 12.970667-9.59488 24.733013-18.725547 36.83328-27.4944 18.773333-13.469013 31.501653-10.212693 40.88832 11.393706 5.010773 11.59168 7.92576 24.026453 12.516694 38.130347 23.985493 0 48.602453 1.04448 73.048746-0.832853 5.502293-0.4608 12.51328-10.3424 14.933334-17.23392 18.52416-50.937173 20.609707-51.643733 63.996586-17.84832 5.594453 4.334933 11.38688 8.301227 18.60608 13.43488 20.534613-27.490987 40.260267-54.114987 63.081814-84.650667-8.76544-7.0144-17.609387-12.55424-24.825174-19.862187-20.401493-20.224-17.855147-29.323947 9.427627-36.457813 11.43808-3.048107 22.9888-5.840213 35.130027-8.843947v-82.30912c-13.520213-3.84-26.576213-6.765227-39.092907-11.308373-21.899947-7.922347-24.44288-21.067093-7.553707-36.461227 7.553707-6.888107 15.694507-13.185707 23.32672-19.483306-27.661653-26.576213-54.490453-52.483413-83.602773-80.431787-5.717333 5.13024-14.772907 13.5168-24.23808 21.56544-17.360213 14.772907-32.50176 9.09312-36.590933-13.63968-0.918187-5.46816-1.631573-11.10016-2.461014-16.520533-0.713387-4.631893-1.297067-9.468587-2.259626-15.854934h-82.056534c-2.583893 11.7248-4.66944 24.23808-7.92576 36.2496-4.62848 17.486507-15.104 23.906987-32.04096 14.189227-15.18592-8.72448-30.122667-17.988267-47.476053-28.330667a252842.69056 252842.69056 0 0 0-63.873707 82.561707c8.758613 7.59808 16.77312 14.015147 24.241494 20.985173 17.605973 16.561493 15.141547 27.490987-8.133974 35.795627-11.88864 4.20864-24.241493 7.133867-37.297493 10.8032v82.2272h0.129707m319.726933-39.758507c-0.365227 59.818667-48.513707 107.670187-107.840853 107.086507-59.579733-0.4608-106.799787-48.725333-106.468694-108.63616 0.498347-59.692373 48.401067-106.96704 108.223147-106.752 60.033707 0.372053 106.42432 47.7184 106.0864 108.301653M653.32224 374.033067c14.90944-11.031893 28.433067-21.531307 42.345813-31.607467 21.579093-15.489707 36.20864-11.74528 47.005014 13.093547 5.761707 13.33248 9.110187 27.624107 14.390613 43.83744 10.676907 0 21.459627 0.17408 32.300373 0.273066 15.104 27.805013 23.497387 60.146347 23.497387 93.924694 0 19.23072-2.833067 38.283947-7.877973 55.57248 0 0.53248-0.160427 0.884053-0.160427 1.41312a30.3616 30.3616 0 0 1-1.41312 5.46816l-68.840107 191.583573c-11.813547 39.519573-44.741973 64.21504-86.009173 64.21504H166.372693c-40.485547 0-71.990613-24.1664-83.336533-62.276267L9.157973 554.06592c-0.314027-1.232213-0.78848-2.819413-1.102506-4.58752a202.58816 202.58816 0 0 1-8.034987-56.45312c0-66.860373 32.764587-127.901013 85.38112-159.30368 21.579093-13.052587 47.100587-19.57888 75.772587-19.57888h0.157013c48.04608 0.170667 92.624213 23.81824 123.026773 64.211627 30.245547-40.219307 74.35264-63.679147 122.39872-64.04096 47.571627 0.3584 91.67872 23.99232 121.770667 64.218453 22.145707-29.55264 51.838293-49.978027 85.01248-58.917547l4.57728 6.171307c11.322027 15.438507 22.490453 30.890667 35.20512 48.247467zM165.423787 517.195093c-16.223573 0-29.300053 14.6432-29.300054 32.812374s13.07648 32.815787 29.300054 32.815786h468.954453c16.2304 0 29.303467-14.6432 29.303467-32.815786s-13.233493-32.812373-29.457067-32.812374H165.423787zM609.672533 53.213867c20.241067 19.039573 17.408 31.607467-9.34912 41.15456-13.666987 4.84352-27.866453 8.198827-42.881706 12.42112V201.3184h0.14336c14.19264 3.60448 28.1088 7.77216 42.31168 10.697387 22.25152 4.747947 25.176747 15.684267 11.697493 32.761173-8.63232 10.745173-17.55136 21.050027-28.48768 33.716907l2.70336 3.659093c-20.46976 6.884693-39.089493 17.821013-57.279147 35.16416-33.399467-31.931733-76.090027-50.100907-121.45664-50.629973-46.001493 0.354987-89.002667 13.233493-122.555733 45.339306-33.86368-32.279893-77.032107-47.988053-123.026773-47.988053h-0.157014c-28.040533 0-43.95008 5.997227-69.471573 16.581973-0.631467 0.354987-1.419947 0.529067-2.205013 0.88064-1.25952 0.529067-2.205013 0.884053-3.464534 1.416534 0 0-4.253013 0.877227-6.458026 0.877226-16.226987 0-29.300053-14.813867-29.300054-32.80896l0.157014-175.88224c0-46.22336 33.713493-83.981653 75.14112-83.981653l485.20192 0.310613c-9.710933 12.550827-19.421867 25.101653-29.125974 37.65248 10.069333 8.731307 19.27168 16.114347 27.86304 24.128854z"  horiz-adv-x="1026" />

    
    <glyph glyph-name="renyuan" unicode="&#58947;" d="M1102.769231 19.456a369.742769 369.742769 0 0 1-232.526769 343.512615 246.311385 246.311385 0 0 1 109.48923 204.957539 246.232615 246.232615 0 0 1-189.755077 239.852308 4.726154 4.726154 0 0 1-2.835692-0.236308c-1.260308 0.078769-2.441846 0.393846-3.702154 0.393846a42.141538 42.141538 0 0 1-6.537846-83.731692c3.544615-1.417846 8.192-2.520615 8.428308-2.599385a159.901538 159.901538 0 0 0-22.449231-308.775385l-0.315077-0.236307a47.261538 47.261538 0 0 1 1.102769-94.444308c0.157538-0.078769 0.315077-0.393846 0.551385-0.393846 149.504-15.202462 255.448615-142.887385 255.448615-298.299077a41.511385 41.511385 0 0 1 82.944-1.575385l0.157539 0.551385v0.236308 0.787692zM604.868923 356.036923a294.675692 294.675692 0 0 1 130.678154 245.129846A294.518154 294.518154 0 0 1 441.422769 896 294.518154 294.518154 0 0 1 147.298462 601.166769c0-102.242462 51.908923-192.196923 130.678153-245.129846A442.525538 442.525538 0 0 1 0-54.980923c0-10.476308 0.630154-20.795077 1.417846-31.113846a40.96 40.96 0 0 1 82.077539 0c0 1.260308-0.315077 2.441846-0.393847 3.702154a313.501538 313.501538 0 0 0-1.575384 27.411692c0 199.286154 161.161846 360.763077 359.896615 360.763077a360.211692 360.211692 0 0 0 359.817846-360.763077c0-9.609846-0.787692-19.062154-1.575384-28.435692 0.708923-24.733538 18.668308-42.535385 40.881231-42.535385a40.96 40.96 0 0 1 40.88123 39.857231c0.787692 10.24 1.339077 20.637538 1.339077 31.113846A442.525538 442.525538 0 0 1 604.947692 356.036923z m-163.446154 33.319385a211.574154 211.574154 0 0 0-211.259077 211.810461c0 116.972308 94.523077 211.731692 211.259077 211.731693a211.495385 211.495385 0 0 0 211.259077-211.731693c0-116.972308-94.601846-211.889231-211.259077-211.889231z"  horiz-adv-x="1103" />

    
    <glyph glyph-name="qita" unicode="&#58894;" d="M512-128C229.234759-128 0 101.234759 0 384S229.234759 896 512 896 1024 666.765241 1024 384 794.765241-128 512-128z m0 105.931034C736.256-22.068966 918.068966 159.744 918.068966 384S736.256 790.068966 512 790.068966 105.931034 608.256 105.931034 384 287.744-22.068966 512-22.068966zM300.137931 384m-52.965517 0a52.965517 52.965517 0 1 1 105.931034 0 52.965517 52.965517 0 1 1-105.931034 0ZM529.655172 384m-52.965517 0a52.965517 52.965517 0 1 1 105.931035 0 52.965517 52.965517 0 1 1-105.931035 0ZM741.517241 384m-52.965517 0a52.965517 52.965517 0 1 1 105.931035 0 52.965517 52.965517 0 1 1-105.931035 0Z"  horiz-adv-x="1024" />

    
    <glyph glyph-name="shenhe" unicode="&#59060;" d="M848 626.7c-156.8 0-276.3 33.6-336 89.6-63.5-56-179.2-89.6-336-89.6-22.4 0-37.3 14.9-37.3 37.3s14.9 37.3 37.3 37.3c205.3 0 272.5 56 294.9 78.4 0 0 3.7 3.7 3.7 7.5v7.5c0 22.4 14.9 37.3 37.3 37.3 18.7 0 37.3-14.9 37.3-37.3v-3.7c3.7-3.7 3.7-7.5 3.7-7.5 22.4-26.1 89.6-82.1 294.9-82.1 22.4 0 37.3-14.9 37.3-37.3 0.2-22.5-14.7-37.4-37.1-37.4z m-317.3-687c-7.5-3.7-11.2-3.7-18.7-3.7s-11.2 0-18.7 3.7c-22.4 7.5-41.1 14.9-59.7 22.4C243.2 33 142.4 148.8 138.7 350.4V496c0 22.4 14.9 37.3 37.3 37.3s37.3-14.9 37.3-37.3v-145.6c3.7-168 82.1-257.6 246.4-321.1 14.9-7.5 33.6-11.2 52.3-18.7 18.7 7.5 33.6 11.2 52.3 18.7C728.6 92.8 807 182.4 810.7 350.4V496c0 22.4 14.9 37.3 37.3 37.3s37.3-14.9 37.3-37.3v-149.3c-3.7-201.6-104.5-317.3-294.9-388.3-18.7-3.7-37.3-11.2-59.7-18.7z m0 0M463.5 574.4l82.1 7.5c3.7-11.2 7.5-26.1 14.9-44.8h171.7v-89.6H665v37.3H358.9v-37.3h-67.2v89.6h182.9c-3.7 14.9-7.4 29.8-11.1 37.3zM325.3 186.1V440h153.1v37.3h67.2V440h153.1v-253.9h-63.5v22.4h-89.6v-93.3h-67.2v93.3h-89.6v-22.4h-63.5z m309.9 201.6h-89.6v-41.1h89.6v41.1z m-246.4-41h89.6v41.1h-89.6v-41.1z m0-89.6h89.6v41.1h-89.6v-41.1z m156.8 0h89.6v41.1h-89.6v-41.1z m0 0"  horiz-adv-x="1024" />

    
    <glyph glyph-name="kongpuzhaozu" unicode="&#59125;" d="M505.38854-90.470107v-0.145551H210.248037a84.91066 84.91066 0 0 0-84.91066 84.91066V242.513587c0 15.683092 12.662914 28.418781 28.309618 28.418781 15.62851 0 28.309618-12.717495 28.309618-28.418781v-233.845449a42.446233 42.446233 0 0 1 42.446233-42.446234h278.056485a28.364199 28.364199 0 0 0 31.257021-28.27323 28.418781 28.418781 0 0 0-28.327812-28.418781z m465.08918 455.446444c15.446572 19.376442 25.362216 42.464427 25.362215 65.006597 0 11.498508-2.092292 22.669527-6.185906 33.85874a36.205745 36.205745 0 0 0-2.03771 8.696656l-30.383716 246.162681c-6.513395 24.361554-33.185568 45.666543-57.037694 45.666543H263.264892c-23.888514 0-50.542493-21.377764-57.037694-45.721125l-66.825982-246.526557c-0.272908-2.911015-0.94608-5.803836-1.964934-8.623881a98.701592 98.701592 0 0 1-6.185907-34.168035c0.054582-54.836239 3.838901-95.299344 58.384039-95.353926a99.047275 99.047275 0 0 1 85.310925 49.505444c6.622558 11.425733 19.32186 18.648688 32.039355 18.102873a36.314908 36.314908 0 0 0 31.384377-19.285473 90.64172 90.64172 0 0 1 80.143874-48.322844c31.948386 0 61.003952 12.990403 77.669511 40.717819 6.549783 10.934499 18.357586 14.082034 31.111469 14.082033 12.717495 0 24.507105-3.165728 31.075082-14.154809 16.57459-27.65464 45.484605-42.428039 77.414798-42.428039 33.567638 0 27.854772 22.105518 43.737995 51.943418 6.222294 11.662253 72.793561 4.694011 86.620882 4.694012 12.917628 0 24.852788-9.588155 31.402571-20.868337 17.648027-30.529267 50.34236-50.8154 85.29273-50.8154 3.056565 0 6.131325 0.181938 9.206084 0.545815a169.930483 169.930483 0 0 0-45.593767-6.185906 171.313215 171.313215 0 0 0-115.876579 45.593767 162.780303 162.780303 0 0 0-112.983758-45.593767 160.979113 160.979113 0 0 0-108.544461 41.609316 161.561316 161.561316 0 0 0-108.744593-41.609316 162.889466 162.889466 0 0 0-113.020146 45.575574 171.295021 171.295021 0 0 0-115.858385-45.575574C76.796207 311.595605 0.109163 388.701107 0 483.873094a172.150132 172.150132 0 0 0 8.514718 53.289763c0.181938 1.018855 0.400265 2.019516 0.654978 3.001983L77.505766 796.115808c14.900757 56.018839 70.755851 99.884192 127.193149 99.884192h608.547623c56.419104 0 112.292392-43.865353 127.24773-99.884192l66.916951-251.075018c1.382732-3.202116 2.27423-6.586171 2.674495-10.061194 5.221633-16.665559 7.841546-33.822352 7.841545-51.088308a172.42304 172.42304 0 0 0-47.449539-118.914951z m-127.502444-260.535816v109.763448a28.309618 28.309618 0 1 0 56.619236 0v-109.763448h90.969209c15.62851 0 28.309618-12.662914 28.309618-28.309618v-0.218326c0-15.62851-12.662914-28.309618-28.309618-28.309618h-90.969209v-146.151132a28.309618 28.309618 0 1 0-56.619236 0v146.151132h-163.744577a28.309618 28.309618 0 0 0-28.309618 28.309618v0.218326c0 15.62851 12.662914 28.309618 28.309618 28.309618h163.744577zM72.811755 242.513587a36.387684 36.387684 0 0 0 72.702592 0.181939H145.550735v-250.329071a42.446233 42.446233 0 0 1 42.446233-42.446233H418.458363c22.705915 0 52.361877 0.636784 88.949693 1.928547v-1.983128L509.427573-50.079778a36.387684 36.387684 0 1 0-4.275553-72.520654H155.666511a84.91066 84.91066 0 0 0-84.91066 84.91066V242.513587h2.055904zM692.403041 434.968047c-15.39199-27.80019-45.120728-48.395619-77.669511-48.39562-30.947725 0-58.966242 13.754544-75.031404 39.535219-6.349651 10.243133-17.793577 13.190535-30.110809 13.190535-12.371812 0-23.815739-2.929209-30.16539-13.11776-16.156132-25.835255-44.320199-37.93416-75.286117-37.93416-32.512395-0.018194-62.404878 17.302344-77.687705 45.029758a35.387022 35.387022 0 0 1-30.420104 17.975516 35.368829 35.368829 0 0 1-31.056888-16.883885c-17.156793-28.455169-48.632139-45.994032-82.709205-46.121389-52.853111 0.036388-109.435959 54.690689-109.49054 105.79719 0.018194 10.879917 2.074098 21.650672 6.003967 31.839224 0.982467 2.619913 1.65564 5.330796 1.910354 8.023484l64.770077 246.708496c6.295069 22.669527 32.130325 42.609978 55.291085 42.609977h617.371637c23.124373 0 48.977822-19.849481 55.291085-42.555396l64.697302-246.381006c0.309295-2.801852 0.964274-5.421765 1.983129-8.09626 3.984451-10.425071 6.003968-20.831949 6.003968-31.548122 0-51.015533-56.673817-105.142212-109.490541-105.142212-33.876934 0-65.570606 18.903402-82.672817 47.35857-6.349651 10.516041-17.920934 19.449217-30.438298 19.449217-13.445249 0-25.071114-10.461459-31.093275-21.341376z m104.086969-338.005195v109.163052a36.387684 36.387684 0 1 0 72.775367 0v-109.163052H982.467462a36.387684 36.387684 0 1 0 0-72.775367h-113.202085v-114.639398a36.387684 36.387684 0 1 0-72.775367 0v114.639398h-109.163051a36.387684 36.387684 0 1 0 0 72.775367h109.163051z m49.978484 214.541784c94.517009 0 171.440572 77.342022 171.440572 172.386652 0 17.247762-2.619913 34.422749-7.841546 51.088308a35.023146 35.023146 0 0 1-2.674495 10.061194l-66.91695 251.075018c-14.955338 56.018839-70.828626 99.884192-127.247731 99.884192H204.698915c-56.437298 0-112.292392-43.865353-127.193149-99.884192L9.169696 540.146647a39.917289 39.917289 0 0 1-0.654978-3.001984A171.95 171.95 0 0 1 0 483.873094c0.109163-95.153793 76.796207-172.277489 171.440572-172.368458a171.295021 171.295021 0 0 1 115.858385 45.575574 162.889466 162.889466 0 0 1 113.020146-45.575574 161.561316 161.561316 0 0 1 108.744593 41.609316 161.015501 161.015501 0 0 1 108.544461-41.609316 162.780303 162.780303 0 0 1 112.983758 45.593767 171.313215 171.313215 0 0 1 115.876579-45.593767z"  horiz-adv-x="1024" />

    
    <glyph glyph-name="dianyuan" unicode="&#58882;" d="M576.46666665 279c138.8 29.4 243.2 153.8 244.20000001 303.2 0.6 0.2 1.2 0.6 2 0.8-0.6 16.4-2.4 32.4-5.4 48C795.06666666 781 667.46666666 896 513.26666666 896c-30 0-58.8-4.4-86.2-12.4l-2.4-0.6C326.86666665 863.4 247.66666666 782 219.26666666 675.2c-8.6-28.8-13.2-59.4-13.2-91 0-150.2 104.6-275.4 244-305.2-190-30.40000001-335-195.8-335-395.2 0-4 0-8.00000001 0.2-11.8h796c0.2 4 0.2 8.00000001 0.2 11.8-0.2 199.4-145.2 364.6-335.00000001 395.2zM221.46666666 576.2c82.6 0.6 156.2 44.8 203.8 113.6 58.2-82.2 154.4-136.00000001 263-136 41.2 0 80.6 7.8 116.8 21.8C800.66666666 416 671.86666666 288 513.26666666 288S225.66666666 416.4 221.46666666 576.2z m567.4-637.4c0-22.2-17.60000001-40.00000001-39.60000001-40H261.86666666c-21.8 0-39.6 18-39.6 40V28c0 22.2 17.60000001 40.00000001 39.6 40h114.2v147h54.8V68h138.4v148.2h54.8V68h125.19999999c21.8 0 39.6-18 39.60000001-40v-89.2z"  horiz-adv-x="1024" />

    
    <glyph glyph-name="yunying" unicode="&#58887;" d="M936.96-128H87.04C40.96-128 0-87.04 0-40.96V808.96C0 855.04 40.96 896 87.04 896h849.92C983.04 896 1024 855.04 1024 808.96v-849.92C1024-87.04 983.04-128 936.96-128z m-92.16 215.04h-665.6c-15.36 0-25.6-10.24-25.6-25.6s10.24-25.6 25.6-25.6h665.6c15.36 0 25.6 10.24 25.6 25.6 0 10.24-10.24 25.6-25.6 25.6z m-578.56 40.96h102.4c10.24 0 15.36 5.12 15.36 15.36V332.8c0 10.24-5.12 15.36-15.36 15.36H266.24c-10.24 0-15.36-5.12-15.36-15.36v-189.44c0-10.24 5.12-15.36 15.36-15.36z m194.56 128c-10.24 0-15.36-5.12-15.36-15.36v-102.4c0-10.24 5.12-15.36 15.36-15.36h102.4c10.24 0 15.36 5.12 15.36 15.36V240.64c0 10.24-5.12 15.36-15.36 15.36h-102.4z m194.56 194.56c-10.24 0-15.36-5.12-15.36-15.36v-291.84c0-10.24 5.12-15.36 15.36-15.36h102.4c10.24 0 15.36 5.12 15.36 15.36V435.2c0 10.24-5.12 15.36-15.36 15.36H655.36zM307.2 517.12l174.08-138.24c5.12-5.12 10.24-5.12 10.24-5.12 5.12 0 10.24 0 15.36 5.12l220.16 256 35.84-30.72c5.12 0 5.12-5.12 10.24-5.12h5.12c5.12 0 10.24 5.12 10.24 15.36l5.12 102.4c0 5.12 0 10.24-5.12 10.24-5.12 5.12-10.24 5.12-15.36 5.12l-102.4-25.6a10.990933 10.990933 0 0 1-10.24-10.24c0-5.12 0-10.24 5.12-15.36l30.72-25.6L486.4 414.72 327.68 542.72c-5.12 10.24-20.48 10.24-25.6 5.12-5.12-10.24-5.12-25.6 5.12-30.72z"  horiz-adv-x="1024" />

    
    <glyph glyph-name="lishishuju" unicode="&#58916;" d="M761.173333 626.176c-192.085333 0-348.16-157.184-348.16-350.378667s156.16-350.378667 348.16-350.378666c192.085333 0 348.16 157.184 348.16 350.378666 0.085333 193.109333-156.16 350.378667-348.16 350.378667z m0-635.050667c-155.989333 0-282.794667 127.744-282.794666 284.672 0 157.013333 126.805333 284.672 282.794666 284.672s282.794667-127.744 282.794667-284.672c0.170667-157.013333-126.72-284.672-282.794667-284.672zM43.349333 116.224A43.093333 43.093333 0 0 1 0 72.96c0-24.064 19.370667-43.52 43.093333-43.52h332.8c-17.152 27.392-31.573333 56.32-42.581333 86.698667l-290.133333 0.085333z m0 692.992h919.552a43.690667 43.690667 0 1 1 30.549334 73.984 42.837333 42.837333 0 0 1-30.549334 12.8H43.349333a43.52 43.52 0 0 1 0-86.784z m0-519.68h261.973334c0.853333 29.013333 4.266667 58.197333 10.496 86.613333H43.349333a43.349333 43.349333 0 0 1 0-86.613333z m435.2 346.453333h-435.2a42.837333 42.837333 0 0 1-43.093333-43.52c0-23.893333 19.285333-43.349333 43.093333-43.349333h351.573334a463.36 463.36 0 0 0 83.626666 86.869333zM771.413333 280.746667V371.712a38.997333 38.997333 0 1 1-77.909333 0v-129.962667c0-21.674667 17.408-38.997333 38.997333-38.997333h129.877334a38.997333 38.997333 0 1 1 0 77.994667H771.413333z"  horiz-adv-x="1109" />

    
    <glyph glyph-name="biaoge" unicode="&#58942;" d="M926.393191 694.03234h-166.323744v-83.140085h166.323744V694.03234z m118.914724-582.699574c-0.108936 206.107234-0.348596 412.214468 0.217872 618.452425-0.806128 20.218553 0.63183 42.550468-11.612596 60.132766-17.473362 11.982979-39.565617 10.566809-59.653446 11.394724-118.914723-0.588255-237.829447-0.348596-356.744171-0.348596V896h-70.568851C364.718298 863.798468 182.359149 832.555574 0 800.833362V-30.611064c181.269787-31.722213 362.692085-62.137191 543.744-95.035915h73.771574v106.909958c123.206809 0.23966 246.39183-0.348596 369.467915 0 19.826383 0.849702 49.54417 1.437957 54.293788 26.144681 7.233362 34.097021 3.442383 69.370553 4.030638 103.946893z m-695.448511 87.911489c-20.196766 49.522383-44.772766 97.410723-59.283064 149.220766-16.14434-48.258723-39.217021-93.750468-57.73617-141.028766a2875.827745 2875.827745 0 0 0-78.041872 2.505532c30.523915 59.740596 59.980255 119.982298 91.462808 179.374298-26.711149 61.178553-56.08034 121.180596-83.619404 182.010553 26.144681 1.525106 52.267574 3.072 78.390468 4.509958 17.713021-46.450383 37.081872-92.312511 51.679319-139.961192 15.686809 50.502809 39.086298 98.020766 59.174128 146.845958a3662.21617 3662.21617 0 0 0 80.765277 4.88034 24535.955064 24535.955064 0 0 0-95.86383-194.712511c32.680851-66.538213 66.058894-132.575319 98.848681-199.135319a7119.980936 7119.980936 0 0 0-85.776341 5.490383z m659.69566-182.359149H617.515574v71.28783h95.035915v83.161873h-95.035915v47.49617h95.035915v83.161872h-95.035915v47.517958h95.035915v83.161872h-95.035915v47.517957h95.035915v83.161873h-95.035915v47.517957h95.035915V694.03234h-95.035915V765.32017h392.03949V16.885106zM926.393191 563.352511h-166.323744v-83.161873h166.323744v83.161873z m0-130.67983h-166.323744v-83.140085h166.323744v83.140085z m0-130.67983h-166.323744v-83.140085h166.323744v83.140085z m0-130.658042h-166.323744v-83.161873h166.323744v83.161873z"  horiz-adv-x="1045" />

    
    <glyph glyph-name="shezhi-copy" unicode="&#59134;" d="M881 384c0 52.4 32.9 96.8 79 114.5-11 43.2-28 83.9-50.2 121.3C864.6 599.7 810 607.9 773 645c-37 37-45.2 91.7-25.1 136.8C710.4 804 669.7 821 626.5 832c-17.8-46.1-62.2-79-114.5-79-52.4 0-96.8 32.9-114.5 79-43.2-11-83.9-28-121.3-50.2 20.1-45.2 11.9-99.8-25.1-136.8-37-37-91.7-45.2-136.8-25.2C92 582.4 75 541.7 64 498.5c46.1-17.8 79-62.2 79-114.5 0-52.4-32.9-96.8-79-114.5 11-43.2 28-83.9 50.2-121.3C159.4 168.29999999999995 214 160.10000000000002 251 123c37-37 45.2-91.7 25.1-136.8C313.6-36 354.3-53 397.5-64c17.8 46.1 62.2 79 114.5 79 52.4 0 96.8-32.9 114.5-79 43.2 11 83.9 28 121.3 50.2-20.1 45.2-11.9 99.8 25.1 136.8 37 37 91.7 45.2 136.8 25.2C932 185.60000000000002 949 226.29999999999995 960 269.5c-46.1 17.7-79 62.1-79 114.5zM512 261c-67.9 0-123 55.1-123 123s55.1 123 123 123 123-55.1 123-123-55.1-123-123-123z"  horiz-adv-x="1024" />

    
    <glyph glyph-name="Group" unicode="&#58886;" d="M494.933333 475.022222H768a91.022222 91.022222 0 1 0 0-182.044444H494.933333a91.022222 91.022222 0 1 0 0 182.044444zM950.044444 384l-273.066666-227.555556V611.555556zM676.977778 128a28.558222 28.558222 0 0 0-28.444445 28.444444V611.555556a28.444444 28.444444 0 0 0 46.648889 21.902222l273.066667-227.555556a28.444444 28.444444 0 0 0 0-43.747555l-273.066667-227.555556a28.103111 28.103111 0 0 0-18.204444-6.599111z m28.444444 422.855111v-333.653333L905.614222 384 705.422222 550.8551110000001zM142.222222 896a113.777778 113.777778 0 0 0 113.777778-113.777778v-796.444444a113.777778 113.777778 0 0 0-227.555556 0V782.222222a113.777778 113.777778 0 0 0 113.777778 113.777778zM142.222222 99.55555600000002h341.333334a113.777778 113.777778 0 0 0 0-227.555556H142.222222a113.777778 113.777778 0 0 0 0 227.555556zM142.222222 896h341.333334a113.777778 113.777778 0 0 0 0-227.555556H142.222222a113.777778 113.777778 0 0 0 0 227.555556z"  horiz-adv-x="1024" />

    
    <glyph glyph-name="mima" unicode="&#58881;" d="M768.922 473.272H372.06c6.82 57.508-42.68 291.308 140.145 297.001 173.834 6.595 146.78-213.34 146.78-213.34l85.135-0.573s24.74 294.4-231.915 295.833C232.1 837.98 297.82 518.82 289.28 473.273h7.29c-55.889 0-101.211-45.343-101.211-101.213v-337.387c0-55.89 45.342-101.213 101.212-101.213h472.35c55.89 0 101.213 45.343 101.213 101.213V372.06c0 55.87-45.343 101.212-101.212 101.212zM566.477 178.975v-76.841c0-18.576-15.155-33.73-33.73-33.73-18.576 0-33.731 15.154-33.731 33.73v76.84c-20.091 11.695-33.73 33.22-33.73 58.123 0 37.274 30.207 67.482 67.48 67.482 37.274 0 67.482-30.208 67.482-67.482-0.02-24.904-13.66-46.428-33.771-58.122z"  horiz-adv-x="1024" />

    
    <glyph glyph-name="quanxian" unicode="&#58908;" d="M898.792727 743.051636c-174.359273 0-337.035636 134.749091-337.035636 134.749091C546.257455 888.738909 526.848 896 511.394909 896c-19.362909 0-38.725818-7.261091-50.362182-18.199273-3.863273-3.630545-162.676364-134.749091-336.989091-134.749091C81.361455 743.051636 46.545455 710.237091 46.545455 670.208v-222.161455c0-200.331636 127.813818-367.848727 422.260363-560.872727 11.636364-7.307636 27.089455-14.568727 42.589091-14.568727 15.499636 0 30.999273 3.630545 42.589091 14.568727 294.446545 193.024 422.260364 360.541091 422.260364 560.872727V670.208c3.863273 40.029091-30.999273 72.843636-77.498182 72.843636z m0-295.005091c0-149.317818-77.498182-298.635636-387.397818-502.597818-309.899636 203.962182-387.397818 353.28-387.397818 502.597818V670.208c209.221818 0 387.397818 152.948364 387.397818 152.948364s182.085818-152.948364 387.351273-152.948364v-222.161455zM685.335273 501.620364c0 83.781818-69.725091 149.317818-158.813091 149.317818S367.709091 585.402182 367.709091 501.620364c0-69.213091 50.362182-127.488 120.087273-145.687273v-149.317818c0-21.876364 15.499636-36.398545 38.725818-36.398546 23.272727 0 38.725818 14.568727 38.725818 36.398546v149.317818c69.771636 18.199273 120.087273 76.474182 120.087273 145.687273z m-158.813091-76.474182c-46.452364 0-81.361455 36.398545-81.361455 76.474182 0 40.029091 38.772364 76.474182 81.361455 76.474181 46.498909 0 81.361455-36.398545 81.361454-76.474181 0-40.029091-34.909091-76.474182-81.361454-76.474182z"  horiz-adv-x="1024" />

    
    <glyph glyph-name="jinengpeixun" unicode="&#58915;" d="M961.00284263 151.24332366l1.73934292-8.41190192-499.58221996-103.80817477-1.76053838 8.4105776L961.00284263 151.24332366zM459.55145699 77.61069617999999l499.53850468 103.81877187 2.02150567-9.99757926-499.58221995-103.80817478L459.55145699 77.61069617999999zM962.52493354 117.16518362l1.73934292-8.41190192L464.65953542 4.955703999999969l-1.67443217 8.35758958L962.52493354 117.16518362zM435.86168625 98.21389545c-14.08298153-44.67316295-13.27888297-88.3898861 4.43380134-131.86683614l536.44224895 121.79242472 7.47665758-33.44757821-550.06820669-124.84587805-15.95214592 2.83620261L56.1603344 158.40337599999998c-19.88520691 45.57396483-26.40542466 91.75862032 0 139.39780736l35.3392624 5.47634739 0-12.06147586L555.35044129 187.08994928000004c12.84437895 31.51350309 20.69063109 72.03635306 3.32634458 108.76523497l-470.56844309 95.48370209 4.43380136 32.76270404 2.28247422 0.69547256 0 0.08610621 0.28216273 0 28.2321994 8.69406595 1.0862613 29.17671653 431.25240312-104.90635749c11.40971857 31.90429183 18.10479866 63.43899169 3.21771856 100.58118344l-435.59877393 96.45206462 0.04239095 44.29297131 342.82012737 87.69308922 397.13187341-81.18479288c21.03770457-39.01135614 15.77860917-75.61041787 0-111.16560797l-28.71041866-16.51779701 52.98703727-8.20392269c22.73200661-41.01034201 17.12451344-80.81519961 0-120.1087185l-87.23738845-54.36473407 184.66708966-50.58533868-1.19488731-35.34853647L435.86168625 98.21389545z"  horiz-adv-x="1024" />

    
    <glyph glyph-name="caifu" unicode="&#58895;" d="M576.102 68.224h32.538c14.26 0 32.538 6.118 32.538 32.563V163.84c0 26.496-18.33 30.515-32.538 32.589h-32.538v-128.205zM447.872 355.174v-63.078c0-26.47 18.355-30.49 32.563-32.538h30.49V387.814h-32.589c-12.16-2.124-30.464-8.192-30.464-32.64zM683.955 595.354c12.237 12.21 18.304 26.47 18.304 44.774 0 34.611-26.419 61.056-61.056 63.104 20.352 14.234 185.19 124.16 124.186 175.027-63.13 52.89-205.543-50.867-254.413-46.822-48.82-4.045-191.309 101.785-254.413 46.822-59.033-50.867 103.783-160.793 124.135-175.027-34.612-2.048-61.056-28.493-61.056-63.104 0-18.304 6.092-32.563 18.33-44.774C177.202 507.827 65.28 304.307 65.28 66.202c0-44.8 4.045-85.504 12.237-128.205 282.854-85.504 584.038-85.504 868.992 0 8.115 40.678 12.237 83.405 12.237 128.205-2.1 240.128-114.023 443.673-274.79 529.152z m-77.337-335.796c38.656 0 95.616-24.396 95.616-95.641v-63.104c0-69.197-57.012-95.642-95.616-95.642h-32.564v-32.537c0-18.33-14.259-32.538-32.537-32.538s-32.538 14.234-32.538 32.538V5.17h-95.641c-18.33 0-32.564 14.26-32.564 32.589 0 18.304 14.285 32.538 32.564 32.538h97.664V198.554h-32.564c-38.656 0-95.616 24.422-95.616 95.616v63.078c0 69.248 57.012 95.667 95.616 95.667h32.564v32.563c0 18.304 14.284 32.564 32.563 32.564 18.33 0 32.537-14.26 32.537-32.564v-32.563h95.616c18.33 0 32.564-14.233 32.564-32.537 0-18.33-14.285-32.564-32.564-32.564h-95.616V259.61h30.516v-0.052z"  horiz-adv-x="1024" />

    
    <glyph glyph-name="chuqin" unicode="&#59035;" d="M754.637 673.792v0.256c9.984 0 19.61 3.994 26.675 11.06 7.066 7.116 10.957 16.742 10.906 26.726V848.128c0.05 9.984-3.943 19.507-10.957 26.624-7.015 7.066-16.589 11.008-26.573 11.008-10.035 0.051-19.763-3.942-26.931-11.008-7.168-7.117-11.213-16.742-11.213-26.829V711.68c0.051-10.035 4.045-19.712 11.213-26.829a37.839 37.839 0 0 1 26.88-11.059z m-469.197 0c10.035-0.051 19.763 3.891 26.931 11.008s11.213 16.742 11.213 26.829V847.872c0 21.094-17.05 38.144-38.144 38.144s-38.144-17.05-38.144-38.144v-136.243c0.051-10.035 4.096-19.712 11.213-26.829 7.168-7.066 16.845-11.06 26.931-11.008z m0 0M989.338 734.362c0.05 16.025-6.35 31.436-17.664 42.803a60.375 60.375 0 0 1-42.752 17.766h-75.674v-68.198c0-54.375-44.083-98.56-98.56-98.56-54.426 0-98.56 44.083-98.56 98.56V794.93h-272.18v-68.198c0-54.375-44.082-98.56-98.56-98.56-54.425 0.051-98.508 44.134-98.508 98.611v68.147h-75.622a60.375 60.375 0 0 1-42.752-17.766c-10.292-10.291-16.436-23.962-17.46-38.349v-195.942H989.39V734.362z m0 0M989.338 542.874h0.921v-14.336h-0.921zM50.995 497.971v-511.744c0-40.448 33.075-73.523 73.523-73.523h791.245c40.448 0 73.523 33.075 73.523 73.523V497.971H50.996z m447.488-172.697c-1.024-15.463-2.611-38.656-4.659-69.632-2.1-41.268-3.635-71.68-4.66-91.29a313.43 313.43 0 0 1-30.924 1.536c4.096 47.411 7.22 101.069 9.267 160.87l30.976-1.484z m-167.065-227.43a351.247 351.247 0 0 1 46.387 6.194V210.79h-38.656v37.12h38.707v85.095h-41.78V371.66h123.751v-38.656h-43.315v-85.095h34.048v-37.12h-34.048v-102.092c5.171 1.024 12.39 2.048 21.658 3.072 10.29 2.048 17.51 3.072 21.657 3.072 0-13.415 0.512-26.317 1.536-38.656-32-2.1-73.216-7.732-123.75-16.999l-6.195 38.656z m125.337-46.388c23.706 25.754 39.168 52.07 46.387 78.9 8.244 25.753 12.39 62.873 12.39 111.36V391.781h38.657V240.18c2.048-94.873-19.098-166.041-63.437-213.504-11.366 9.319-22.682 17.562-33.997 24.781z m250.573-3.072h-153.14v34.048h58.778v116.02h-44.85V235.52h44.85v99.02h-44.85v37.12H698.06v-37.12h-46.387v-99.02h43.315v-37.12h-43.315v-116.02h55.705v-33.996z"  horiz-adv-x="1024" />

    
    <glyph glyph-name="jiaose" unicode="&#59133;" d="M640 768c115.98 0 210-94.02 210-210s-94.02-210-210-210-210 94.02-210 210 94.02 210 210 210z m226.926-434.732l-79.964 19.992c-98.336-70.73-217.532-54.946-293.922 0l-79.964-19.992C348.97 317.242 304 259.646 304 193.568V72c0-39.764 32.236-72 72-72h528c39.764 0 72 32.236 72 72V193.568c0 66.078-44.97 123.674-109.074 139.7zM1056 296c77.32 0 140 62.68 140 140s-62.68 140-140 140-140-62.68-140-140 62.68-140 140-140z m-832 0c77.32 0 140 62.68 140 140s-62.68 140-140 140S84 513.32 84 436s62.68-140 140-140z m48-224V193.568c0 33.102 9.186 64.408 25.406 91.198-59.976-29.44-126.672-17.416-171.38 14.74l-53.31-13.328C29.98 275.496 0 237.096 0 193.046V112c0-26.51 21.49-48 48-48h224.338a104.834 104.834 0 0 0-0.338 8z m935.284 214.18l-53.31 13.328c-55.85-40.172-121.78-38.466-171.572-14.436 16.336-26.858 25.598-58.274 25.598-91.504V72c0-2.694-0.136-5.356-0.338-8H1232c26.51 0 48 21.49 48 48v81.046c0 44.05-29.98 82.45-72.716 93.134z"  horiz-adv-x="1280" />

    
    <glyph glyph-name="icon-" unicode="&#58888;" d="M268.02606186-38.30899283999997a117.44211993 117.44211993 0 0 0-117.28124029 117.2812403L150.74482157 689.0277525399999A117.44211993 117.44211993 0 0 0 268.02606186 806.30899284l488.02831609 0a117.44211993 117.44211993 0 0 0 117.2812403-117.2812403l0-609.97506528a117.44211993 117.44211993 0 0 0-117.2812403-117.28124029z m0 792.97562884a65.79976308 65.79976308 0 0 1-65.71932328-65.71932326l0-609.97506528a65.79976308 65.79976308 0 0 1 65.71932328-65.71932326l488.02831609 0a65.79976308 65.79976308 0 0 1 65.71932328 65.71932326L821.77370123 689.0277525399999a65.79976308 65.79976308 0 0 1-65.71932328 65.71932326zM318.94446042 358.17882159a25.82117841 25.82117841 0 1 0 0 51.56191701l386.11107916 0a25.82117841 25.82117841 0 1 0 0-51.56191701zM318.94446042 236.23207242a25.82117841 25.82117841 0 1 0 0 51.24015779l263.44037172 0a25.82117841 25.82117841 0 1 0 0-51.64235684zM318.94446042 480.52776979a25.82117841 25.82117841 0 1 0 0 51.64235684l386.11107916 0a25.82117841 25.82117841 0 1 0 0-51.64235684z"  horiz-adv-x="1024" />

    
    <glyph glyph-name="zhanghuffffffpx" unicode="&#59070;" d="M503 360c132.1 0 239.5 105.8 239.5 236 0 130.1-107.4 236-239.5 236S263.5 726.1 263.5 596 371 360 503 360z m98.7-22.7H422.3c-166.8 0-302.4-133.6-302.4-297.8v-17.7c0-85.8 133.5-85.8 302.4-85.8h179.5c162.3 0 302.4 0 302.4 85.8v17.7c-0.1 164.2-135.7 297.8-302.5 297.8z"  horiz-adv-x="1024" />

    


  </font>
</defs>
</svg>
